

<svg xmlns="http://www.w3.org/2000/svg" fill="#808080" width="329.301" height="93.301" viewBox="0 0 329.301 93.301" version="1.1">
	<path fill-rule="evenodd" d="M 28.6 53.001 L 28.6 18.201 A 9.646 9.646 0 0 0 27.869 14.432 A 9.264 9.264 0 0 0 27.3 13.301 Q 26 11.101 23.8 9.801 Q 21.6 8.501 19 8.501 Q 16.4 8.501 14.25 9.801 Q 12.1 11.101 10.85 13.301 A 9.666 9.666 0 0 0 9.605 17.865 A 11.467 11.467 0 0 0 9.6 18.201 L 9.6 71.301 L 0 71.301 L 0 19.501 A 21.68 21.68 0 0 1 0.847 13.357 A 19.032 19.032 0 0 1 2.4 9.601 Q 4.8 5.201 9.1 2.651 A 18.275 18.275 0 0 1 16.607 0.223 A 22.868 22.868 0 0 1 19 0.101 Q 24.7 0.101 29 2.651 Q 33.3 5.201 35.7 9.601 Q 38.1 14.001 38.1 19.501 L 38.1 54.301 A 10.247 10.247 0 0 0 38.478 57.13 A 8.706 8.706 0 0 0 39.4 59.251 Q 40.7 61.401 42.85 62.701 Q 45 64.001 47.5 64.001 Q 50 64.001 52.1 62.701 Q 54.2 61.401 55.45 59.251 Q 56.7 57.101 56.7 54.301 L 56.7 19.501 A 21.203 21.203 0 0 1 57.61 13.206 A 18.809 18.809 0 0 1 59.15 9.601 Q 61.6 5.201 65.9 2.651 Q 70.2 0.101 75.9 0.101 A 20.912 20.912 0 0 1 81.484 0.82 A 17.601 17.601 0 0 1 85.8 2.651 Q 90.1 5.201 92.5 9.601 Q 94.9 14.001 94.9 19.501 L 94.9 71.301 L 85.3 71.301 L 85.3 18.201 A 10.067 10.067 0 0 0 84.71 14.724 A 9.392 9.392 0 0 0 84.05 13.301 Q 82.8 11.101 80.65 9.801 Q 78.5 8.501 75.9 8.501 A 9.605 9.605 0 0 0 72.671 9.032 A 8.807 8.807 0 0 0 71.05 9.801 Q 68.9 11.101 67.6 13.301 A 9.416 9.416 0 0 0 66.302 18.032 A 11.119 11.119 0 0 0 66.3 18.201 L 66.3 53.001 A 23.236 23.236 0 0 1 65.726 58.279 A 18.343 18.343 0 0 1 63.85 63.151 Q 61.4 67.501 57.15 70.001 A 18.216 18.216 0 0 1 49.16 72.439 A 22.234 22.234 0 0 1 47.5 72.501 A 20.019 20.019 0 0 1 41.328 71.572 A 17.942 17.942 0 0 1 37.8 70.001 Q 33.5 67.501 31.05 63.151 A 18.901 18.901 0 0 1 28.846 56.526 A 24.531 24.531 0 0 1 28.6 53.001 Z "/>
	<path fill-rule="evenodd" d="M 118.1 30.601 L 108.9 30.601 L 108.9 1.301 L 118.1 1.301 L 118.1 30.601 Z"/>
	<path fill-rule="evenodd" d="M 169.3 71.301 L 150.5 71.301 A 22.261 22.261 0 0 1 145.575 70.78 A 17.009 17.009 0 0 1 140.65 68.851 Q 136.5 66.401 134.25 62.151 A 19.493 19.493 0 0 1 132.08 54.551 A 23.67 23.67 0 0 1 132 52.601 L 132 1.301 L 141.6 1.301 L 141.6 53.801 Q 141.6 57.701 144.05 60.251 Q 146.5 62.801 150.5 62.801 L 169.3 62.801 L 169.3 71.301 Z "/>
	<path fill-rule="evenodd" d="M 204.098 71.705 A 41.656 41.656 0 0 0 212.9 72.601 A 44.335 44.335 0 0 0 217.932 72.322 A 35.663 35.663 0 0 0 227.9 69.751 A 38.539 38.539 0 0 0 228.109 69.661 A 33.805 33.805 0 0 0 239.35 61.901 Q 244.1 56.901 246.7 50.301 Q 249.3 43.701 249.3 36.301 A 43.033 43.033 0 0 0 249.298 35.833 A 38 38 0 0 0 246.7 22.201 Q 244.1 15.601 239.35 10.601 A 32.477 32.477 0 0 0 239.276 10.523 A 33.285 33.285 0 0 0 227.9 2.801 A 34.726 34.726 0 0 0 221.616 0.862 A 42.433 42.433 0 0 0 212.9 0.001 A 45.119 45.119 0 0 0 207.869 0.274 A 36.175 36.175 0 0 0 197.9 2.801 A 33.681 33.681 0 0 0 197.887 2.806 A 33.267 33.267 0 0 0 186.45 10.601 Q 181.7 15.601 179.1 22.201 Q 176.5 28.801 176.5 36.201 A 43.033 43.033 0 0 0 176.503 36.668 A 38 38 0 0 0 179.1 50.301 Q 181.7 56.901 186.45 61.901 A 32.741 32.741 0 0 0 187.358 62.819 A 34.08 34.08 0 0 0 197.9 69.751 A 34.25 34.25 0 0 0 204.098 71.705 Z M 212.9 64.101 A 27.201 27.201 0 0 0 221.318 62.819 A 25.266 25.266 0 0 0 223.5 62.001 Q 228.4 59.901 232.05 56.101 Q 235.7 52.301 237.7 47.251 A 28.747 28.747 0 0 0 239.605 38.78 A 34.242 34.242 0 0 0 239.7 36.201 Q 239.7 30.301 237.7 25.201 A 26.751 26.751 0 0 0 232.324 16.586 A 25.841 25.841 0 0 0 232.1 16.351 Q 228.5 12.601 223.55 10.551 Q 218.6 8.501 212.9 8.501 A 28.721 28.721 0 0 0 205.513 9.426 A 25.509 25.509 0 0 0 202.2 10.551 Q 197.3 12.601 193.7 16.351 A 26.677 26.677 0 0 0 188.132 25.121 A 30.245 30.245 0 0 0 188.1 25.201 A 29.331 29.331 0 0 0 186.171 34.082 A 34.562 34.562 0 0 0 186.1 36.301 A 30.61 30.61 0 0 0 187.089 44.177 A 27.448 27.448 0 0 0 188.1 47.251 Q 190.1 52.301 193.7 56.101 Q 197.3 59.901 202.2 62.001 A 26.302 26.302 0 0 0 211.11 64.049 A 30.93 30.93 0 0 0 212.9 64.101 Z"/>
	<path fill-rule="evenodd" d="M 329.3 35.101 L 329.3 75.401 A 24.68 24.68 0 0 1 328.861 80.166 A 18.657 18.657 0 0 1 327.3 84.851 A 15.169 15.169 0 0 1 323.819 89.501 A 14.37 14.37 0 0 1 321.65 91.101 A 14.914 14.914 0 0 1 316.77 92.937 A 20.67 20.67 0 0 1 312.8 93.301 Q 307.8 93.301 303.95 91.351 Q 300.1 89.401 297.9 85.601 A 15.988 15.988 0 0 1 296.036 80.412 A 21.8 21.8 0 0 1 295.7 76.501 Q 295.7 75.201 295.8 73.851 Q 295.9 72.501 296.1 71.101 A 45.869 45.869 0 0 1 293.309 71.187 Q 286.694 71.187 280.9 69.201 Q 273.9 66.801 268.7 62.051 Q 263.5 57.301 260.6 50.551 A 36.069 36.069 0 0 1 257.82 38.935 A 43.09 43.09 0 0 1 257.7 35.701 A 38.756 38.756 0 0 1 259.288 24.51 A 35.855 35.855 0 0 1 260.2 21.851 Q 262.7 15.401 267.4 10.501 A 32.835 32.835 0 0 1 278.285 3.047 A 37.641 37.641 0 0 1 278.75 2.851 A 36.336 36.336 0 0 1 289.059 0.318 A 44.384 44.384 0 0 1 293.5 0.101 A 42.095 42.095 0 0 1 302.138 0.955 A 34.805 34.805 0 0 1 308.2 2.801 A 33.042 33.042 0 0 1 318.603 9.46 A 31.765 31.765 0 0 1 319.5 10.351 Q 324.2 15.201 326.75 21.501 A 35.465 35.465 0 0 1 329.274 33.628 A 40.952 40.952 0 0 1 329.3 35.101 Z M 319.7 41.901 L 319.7 35.101 A 29.225 29.225 0 0 0 318.779 27.665 A 26.025 26.025 0 0 0 317.75 24.551 Q 315.8 19.701 312.25 16.151 Q 308.7 12.601 303.9 10.551 A 25.902 25.902 0 0 0 294.546 8.519 A 29.998 29.998 0 0 0 293.5 8.501 Q 287.8 8.501 283.05 10.551 Q 278.3 12.601 274.75 16.301 Q 271.2 20.001 269.25 24.951 Q 267.3 29.901 267.3 35.701 A 30.315 30.315 0 0 0 268.222 43.274 A 26.99 26.99 0 0 0 269.25 46.451 Q 271.2 51.401 274.75 55.101 Q 278.3 58.801 283.05 60.851 A 25.287 25.287 0 0 0 291.224 62.816 A 30.186 30.186 0 0 0 293.5 62.901 A 30.325 30.325 0 0 0 295.422 62.842 A 25.02 25.02 0 0 0 296.5 62.751 A 19.966 19.966 0 0 0 298.139 62.503 A 25.315 25.315 0 0 0 299.5 62.201 A 29.992 29.992 0 0 1 301.439 58.344 A 38.447 38.447 0 0 1 303.45 55.301 A 37.466 37.466 0 0 1 306.555 51.596 A 50.031 50.031 0 0 1 309.95 48.351 Q 313.777 45.008 319.34 42.088 A 67.533 67.533 0 0 1 319.7 41.901 Z M 319.7 75.601 L 319.7 51.801 A 42.108 42.108 0 0 0 315.905 54.315 Q 314.002 55.737 312.497 57.253 A 26.146 26.146 0 0 0 312.4 57.351 A 30.7 30.7 0 0 0 309.742 60.419 A 23.506 23.506 0 0 0 307.85 63.351 A 25.476 25.476 0 0 0 306.062 67.449 A 21.954 21.954 0 0 0 305.5 69.451 Q 304.8 72.501 304.8 75.501 A 13.373 13.373 0 0 0 304.987 77.796 Q 305.217 79.116 305.731 80.207 A 8.115 8.115 0 0 0 305.85 80.451 A 8.89 8.89 0 0 0 307.106 82.312 A 7.286 7.286 0 0 0 308.6 83.601 A 6.784 6.784 0 0 0 310.861 84.558 A 6.321 6.321 0 0 0 312.2 84.701 A 7.554 7.554 0 0 0 314.945 84.218 A 6.841 6.841 0 0 0 317.6 82.351 A 7.619 7.619 0 0 0 319.167 79.514 Q 319.53 78.361 319.646 76.967 A 16.476 16.476 0 0 0 319.7 75.601 Z"/>
</svg>
