
<svg xmlns="http://www.w3.org/2000/svg" fill="#808080"  stroke="none" viewBox="0 0 473 316" version="1.1">
	<path d="M 114.720 6.511 C 107.490 8.332, 95.360 13.347, 87.500 17.765 C 72.224 26.351, 48.672 47.413, 34.680 65 C 20.421 82.924, 18.417 87.128, 20.183 95.410 C 22.007 103.960, 32.414 110.312, 40.869 108.035 C 46.385 106.550, 48.846 104.299, 58.163 92.218 C 67.428 80.204, 83.311 63.877, 92.757 56.656 C 100.667 50.609, 114.495 43.220, 121.282 41.413 C 127.379 39.790, 135.784 39.587, 139.434 40.975 C 140.845 41.511, 142.930 43.424, 144.067 45.225 C 148.472 52.201, 144.997 72.825, 134.857 99.881 C 122.110 133.895, 94.581 188.073, 67.858 231.732 C 63.200 239.342, 61.813 244.715, 63.193 249.801 C 65.575 258.583, 72.577 263.532, 81.566 262.786 C 88.926 262.176, 92.502 259.098, 99.523 247.329 C 108.616 232.089, 128.874 202.431, 144.487 181.500 C 177.904 136.702, 202.118 111.787, 220.350 103.440 C 227.528 100.154, 236.756 99.745, 242.366 102.464 C 246.523 104.479, 253 110.570, 253 112.464 C 253 113.101, 249.154 116.960, 244.453 121.041 C 231.813 132.013, 214.911 151.039, 206.291 164 C 198.553 175.635, 193.411 185.636, 189.839 196 C 186.906 204.508, 186.566 206.649, 186.581 216.500 C 186.602 230.353, 188.734 236.438, 196.505 244.832 C 207.815 257.048, 224.184 261.578, 241.081 257.167 C 257.699 252.829, 274.338 237.334, 284.751 216.500 C 296.647 192.699, 302.578 157.415, 298.872 132.495 C 297.550 123.606, 297.011 124.333, 309.500 118.166 C 338.374 103.907, 358.347 104.827, 367.765 120.848 C 370.178 124.952, 370.496 126.502, 370.463 134 C 370.400 148.236, 365.778 160.547, 344.921 202.030 C 329.075 233.545, 326.036 242.221, 325.311 258 C 324.180 282.643, 333.038 300.162, 351.323 309.443 C 371.873 319.874, 395.160 315.068, 413.571 296.597 C 432.010 278.099, 453 245.886, 453 236.086 C 453 226.707, 446.498 219.881, 436.904 219.187 C 428.531 218.581, 424.023 221.386, 418.742 230.487 C 405.327 253.607, 389.961 272.939, 381.615 277.196 C 376.780 279.663, 369.973 279.868, 366.586 277.648 C 362.180 274.762, 360.528 270.356, 360.529 261.500 C 360.530 250.820, 361.683 247.746, 378.155 214.524 C 398.825 172.832, 404.603 156.454, 405.713 136.408 C 406.786 117.004, 401.872 103.548, 389.124 90.989 C 380.490 82.483, 370.904 76.896, 360.897 74.537 C 352.669 72.598, 335.157 72.574, 326.050 74.490 C 316.535 76.491, 301.305 82.220, 291.355 87.541 L 283.210 91.897 278.016 85.925 C 260.645 65.953, 232.576 59.731, 207.963 70.397 C 199.665 73.993, 186.941 82.079, 179.084 88.750 L 174.667 92.500 175.322 89.500 C 175.682 87.850, 176.892 82.675, 178.011 78 C 180.651 66.969, 181.645 49.346, 180.056 41.737 C 176.992 27.064, 167.989 15.793, 154.002 9.120 C 146.726 5.649, 146.121 5.536, 133.502 5.299 C 124.687 5.134, 118.639 5.524, 114.720 6.511 M 118.500 21.407 C 99.529 26.507, 82.676 37.243, 63.474 56.462 C 52.073 67.873, 35 88.535, 35 90.920 C 35 91.379, 35.599 92.253, 36.332 92.861 C 38.109 94.336, 39.223 93.321, 46.544 83.555 C 49.820 79.185, 57.395 70.516, 63.379 64.289 C 88.756 37.879, 111.601 25, 133.070 25 C 139.572 25, 141.580 25.449, 146.854 28.085 C 157.525 33.417, 161.292 40.475, 161.220 55 C 161.135 72.213, 154.138 96.291, 139.426 130 C 129.420 152.925, 101.691 205.200, 82.780 236.790 C 78.001 244.773, 77.312 248, 80.388 248 C 81.186 248, 84.862 243.162, 88.556 237.250 C 107.280 207.285, 136.086 166.855, 155.226 143.679 C 169.180 126.782, 194.734 101.545, 204 95.511 C 214.402 88.737, 223.435 85.704, 233.552 85.591 C 240.927 85.508, 242.238 85.814, 249.161 89.235 C 264.868 96.997, 275.640 113.269, 279.044 134.374 C 281.659 150.584, 278.980 175.263, 272.508 194.589 C 260.651 229.995, 232.792 248.817, 214.527 233.762 C 204.832 225.771, 204.317 212.214, 212.993 193.402 C 220.429 177.279, 238.394 153.874, 254.313 139.570 C 259.614 134.807, 262 131.957, 262 130.390 C 262 129.141, 261.626 127.887, 261.169 127.604 C 259.859 126.795, 243.547 142.441, 233.736 153.917 C 211.937 179.417, 201.156 201.522, 202.238 218.500 C 203.227 234.016, 213.466 243.348, 229.577 243.415 C 235.608 243.440, 237.653 242.953, 243.405 240.121 C 262.279 230.830, 275.881 208.029, 282.703 174.248 C 283.995 167.849, 284.448 161.069, 284.391 149 C 284.320 134.077, 284.054 131.640, 281.605 123.500 C 274.584 100.158, 258.991 84.050, 240.319 80.848 C 221.935 77.695, 202.711 86.813, 179.412 109.735 C 167.057 121.891, 150.264 141.270, 136.307 159.479 C 129.825 167.936, 124.377 174.711, 124.201 174.534 C 124.024 174.357, 126.775 168.427, 130.314 161.356 C 146.449 129.119, 160.383 93.208, 164.597 73 C 165.589 68.245, 166.382 60.094, 166.398 54.500 C 166.423 45.647, 166.105 43.797, 163.632 38.374 C 160.285 31.035, 155.277 25.898, 148.500 22.850 C 142.314 20.069, 126.340 19.300, 118.500 21.407 M 327.500 89.899 C 317.583 92.599, 308.179 96.285, 298.932 101.096 C 291.967 104.720, 291.028 105.523, 291.597 107.376 C 291.955 108.544, 292.357 109.627, 292.489 109.781 C 292.621 109.936, 296.053 108.290, 300.115 106.124 C 326.829 91.876, 350.639 89.152, 366.618 98.517 C 373.639 102.631, 380.589 110.338, 383.179 116.883 C 384.997 121.476, 385.405 124.506, 385.417 133.500 C 385.441 151.883, 381.854 162.049, 359.311 207.500 C 344.329 237.705, 342.485 242.366, 340.781 254.329 C 338.628 269.449, 342.471 282.570, 351.485 290.879 C 358.516 297.360, 363.912 299.437, 373.500 299.351 C 387.395 299.228, 396.646 294.148, 408.999 279.861 C 421.056 265.914, 438 240.167, 438 235.791 C 438 234.706, 437.260 234, 436.124 234 C 434.805 234, 432.436 237.069, 428.132 244.355 C 415.508 265.729, 398.108 286.299, 388.865 290.779 C 375.459 297.276, 361.266 294.970, 352.641 284.894 C 347.457 278.838, 345.573 272.384, 345.665 261 C 345.771 247.753, 348.379 240.440, 363.956 209.700 C 386.126 165.952, 391.503 150.242, 390.849 131.128 C 390.518 121.460, 390.167 119.781, 387.223 113.802 C 382.755 104.725, 374.726 96.907, 365.113 92.274 C 357.901 88.798, 356.894 88.588, 346 88.298 C 337.070 88.061, 332.935 88.418, 327.500 89.899 M 254.821 160.771 C 236.956 179.322, 223.063 201.975, 222.196 213.966 C 221.704 220.764, 222.606 222.535, 227.056 223.512 C 233.301 224.884, 243.565 217.028, 250.375 205.665 C 257.380 193.977, 264.546 167.729, 263.808 156.463 L 263.500 151.757 254.821 160.771" fill-rule="evenodd"/>
</svg>