
<svg xmlns="http://www.w3.org/2000/svg" width="1135" height="204" viewBox="0 0 1135 204" version="1.1">
	<path d="M 341 42.872 C 313.095 49.005, 294.086 68.265, 289.408 95.146 C 285.684 116.547, 291.037 135.037, 305 149 C 316.518 160.518, 330.568 166, 348.570 166 C 360.742 166, 371.222 163.600, 382 158.344 C 397.066 150.998, 410.545 134.053, 414.500 117.486 C 416.378 109.618, 416.392 91.062, 414.525 84.045 C 409.266 64.284, 393.563 48.809, 373.376 43.493 C 363.790 40.968, 350.797 40.719, 341 42.872 M 470.992 41.953 C 451.223 44.581, 438.948 56.750, 435.059 77.578 C 433.985 83.332, 424.789 141.939, 422.912 155 C 422.398 158.575, 421.771 162.063, 421.520 162.750 C 421.168 163.713, 424.379 164, 435.531 164 C 443.489 164, 450 163.826, 450 163.614 C 450 163.120, 457.540 114.461, 459.509 102.250 C 463.562 77.109, 464.233 73.434, 465.044 71.918 C 467.670 67.011, 476.838 65.337, 480.811 69.039 C 483.313 71.369, 483.696 76.964, 481.981 86.083 C 478.608 104.011, 475.001 129.941, 475.010 136.201 C 475.033 153.552, 486.768 164.815, 505.872 165.822 C 520.200 166.578, 531.195 162.858, 539.663 154.390 C 547.794 146.259, 549.361 141.303, 554.970 105.983 C 560.675 70.056, 564.016 48.404, 564.303 45.500 C 564.491 43.586, 563.899 43.500, 550.574 43.500 L 536.648 43.500 534.410 57.500 C 533.179 65.200, 530.749 80.500, 529.011 91.500 C 524.112 122.502, 522.011 134.111, 520.933 136.126 C 518.229 141.178, 509.385 142.475, 505.325 138.416 C 502.906 135.997, 502.783 135.420, 503.403 129.368 C 503.768 125.812, 505.353 115.162, 506.927 105.702 C 512.352 73.085, 512.514 71.248, 510.579 64.500 C 508.166 56.089, 504.843 51.501, 497.924 47.029 C 490.573 42.278, 481.464 40.561, 470.992 41.953 M 859.500 42.060 C 841.788 44.439, 830.435 54.069, 825.414 70.977 C 824.653 73.541, 821.112 94.508, 817.545 117.570 C 813.979 140.631, 810.884 160.512, 810.669 161.750 C 810.278 163.996, 810.303 164, 824.458 164 L 838.639 164 841.312 146.750 C 842.783 137.262, 844.892 123.875, 846 117 C 848.339 102.478, 849.581 94.427, 851.089 84.011 C 851.685 79.892, 852.771 75.089, 853.503 73.339 C 856.317 66.604, 865.365 64.479, 869.750 69.523 C 872.411 72.584, 872.494 74.600, 870.473 87.074 C 869.633 92.258, 868.515 99.200, 867.989 102.500 C 867.462 105.800, 866.061 114.575, 864.874 122 C 863.016 133.635, 862.883 136.304, 863.912 141.318 C 865.548 149.286, 868.841 154.804, 874.621 159.266 C 880.798 164.033, 887.326 166, 896.971 166 C 914.451 166, 927.176 159.176, 934.912 145.654 C 937.792 140.618, 940.069 131.074, 942.941 112 C 944.875 99.149, 946.425 89.192, 949.944 67 C 951.035 60.125, 952.056 52.025, 952.213 49 L 952.500 43.500 939.028 43.500 L 925.555 43.500 924.768 48 C 923.865 53.161, 920.277 75.606, 918.933 84.500 C 914.356 114.790, 910.924 133.321, 909.419 135.868 C 906.240 141.249, 899.333 142.623, 894.514 138.832 C 891.858 136.743, 891.778 136.408, 892.297 129.582 C 892.594 125.687, 894.447 112.825, 896.416 101 C 901.350 71.365, 901.158 64.002, 895.218 55.159 C 888.353 44.937, 874.878 39.995, 859.500 42.060 M 112.876 44.108 C 101.022 45.639, 91.415 51.204, 86.682 59.279 C 83.340 64.983, 81.443 71.980, 79.035 87.500 C 77.252 98.984, 69.332 148.370, 67.448 159.750 L 66.744 164 81.261 164 L 95.777 164 96.325 160.750 C 96.626 158.963, 97.836 151.200, 99.013 143.500 C 100.190 135.800, 101.470 127.700, 101.858 125.500 L 102.562 121.500 126.112 121.232 L 149.661 120.965 150.801 114.732 C 151.428 111.305, 152.241 105.912, 152.608 102.750 L 153.275 97 130.138 97 L 107 97 107.020 94.250 C 107.062 88.336, 109.919 75.584, 111.757 73.109 C 115.317 68.311, 116.943 68.030, 141.250 68.015 C 158.757 68.003, 164.008 67.712, 164.035 66.750 C 164.054 66.063, 164.720 61.900, 165.515 57.500 C 167.447 46.808, 167.398 44.244, 165.250 43.652 C 162.278 42.833, 119.888 43.201, 112.876 44.108 M 187.250 43.740 C 186.012 43.960, 184.997 44.220, 184.994 44.320 C 184.991 44.419, 184.535 47.200, 183.980 50.500 C 183.426 53.800, 182.496 59.650, 181.915 63.500 C 180.311 74.115, 179.437 79.730, 176 101.500 C 174.264 112.500, 172.464 123.975, 172.002 127 C 168.521 149.764, 166.922 159.815, 166.472 161.777 L 165.948 164.054 180.684 163.777 L 195.420 163.500 197.160 152.500 C 198.117 146.450, 199.416 138.448, 200.047 134.718 L 201.193 127.936 212.200 128.218 L 223.206 128.500 228.553 141.393 C 236.844 161.385, 240.311 163.943, 259.171 163.978 L 270.841 164 271.403 161.250 C 271.712 159.738, 272.446 155.350, 273.034 151.500 C 273.622 147.650, 274.354 143.488, 274.660 142.250 C 275.198 140.077, 274.976 140, 268.180 140 C 262.881 140, 260.722 139.579, 259.437 138.295 C 257.779 136.636, 252 124.699, 252 122.932 C 252 122.448, 253.436 121.309, 255.192 120.401 C 256.948 119.493, 260.782 116.482, 263.713 113.710 C 284.982 93.595, 281.833 59.904, 257.567 47.959 C 253.028 45.724, 249.017 44.664, 242.445 43.961 C 233.972 43.055, 192.059 42.888, 187.250 43.740 M 579.308 43.689 C 577.086 44.130, 576.371 46.349, 574.536 58.500 C 574.203 60.700, 573.686 63.737, 573.386 65.250 L 572.841 68 589.500 68 L 606.159 68 605.579 70.750 C 604.245 77.072, 597.805 118.242, 596.760 127.128 C 594.765 144.090, 599.114 154.640, 610.517 160.498 C 615.779 163.202, 617.452 163.532, 627.543 163.852 L 638.734 164.207 639.821 157.854 C 640.419 154.359, 641.178 149.700, 641.507 147.500 C 641.837 145.300, 642.338 142.713, 642.621 141.750 C 643.075 140.203, 642.336 140, 636.242 140 C 625.488 140, 623.490 136.674, 625.981 122.917 C 626.520 119.938, 627.880 111.650, 629.003 104.500 C 630.127 97.350, 631.456 89.025, 631.959 86 C 632.461 82.975, 633.155 78.228, 633.502 75.452 C 633.848 72.676, 634.459 69.875, 634.859 69.229 C 635.354 68.427, 640.646 67.965, 651.477 67.776 L 667.368 67.500 668.534 60.500 C 669.176 56.650, 669.997 51.222, 670.360 48.438 L 671.019 43.376 626.259 43.315 C 601.642 43.281, 580.514 43.449, 579.308 43.689 M 759 44.023 C 743.953 45.430, 732.758 51.449, 726.250 61.630 C 719.892 71.575, 719.279 85.093, 724.690 96.009 L 727.643 101.968 724.722 104.734 C 716.484 112.534, 711.481 124.605, 712.279 134.755 C 713.217 146.694, 719.540 155.545, 730.954 160.899 L 736.500 163.500 765.485 163.500 C 790.506 163.500, 794.494 163.295, 794.644 162 C 794.739 161.175, 795.338 157.125, 795.975 153 C 796.612 148.875, 797.317 144.262, 797.542 142.750 L 797.950 140 773.623 140 C 750.045 140, 749.193 139.931, 745.975 137.750 C 744.149 136.513, 742.236 134.238, 741.726 132.696 C 740.641 129.420, 741.434 124.157, 743.421 121.438 C 744.788 119.569, 744.899 119.575, 748.739 121.733 C 757.802 126.827, 774.929 128.607, 784.266 125.425 C 790.143 123.423, 797.750 116.760, 800.122 111.539 C 802.771 105.706, 802.587 96.595, 799.718 91.530 C 792.413 78.632, 772.723 76.625, 749.811 86.443 C 748.458 87.023, 747.988 86.455, 747.451 83.590 C 746.548 78.776, 747.477 75.617, 750.937 71.742 L 753.833 68.500 781.659 68 L 809.484 67.500 811.169 57 C 812.095 51.225, 812.886 45.788, 812.926 44.917 C 812.991 43.519, 810.345 43.328, 790.250 43.281 C 777.737 43.252, 763.675 43.586, 759 44.023 M 973.557 44.192 C 973.323 44.911, 972.195 51.575, 971.050 59 C 969.905 66.425, 968.537 75.200, 968.009 78.500 C 967.481 81.800, 966.363 88.888, 965.524 94.250 C 964.686 99.612, 963.314 108.388, 962.476 113.750 C 960.848 124.156, 960.189 128.310, 957.019 148.113 C 955.909 155.051, 955 161.502, 955 162.450 C 955 164.054, 957.140 164.143, 985.750 163.732 C 1019.843 163.243, 1022.099 162.904, 1036 156.187 C 1041.717 153.425, 1045.536 150.535, 1052.065 144.032 C 1066.214 129.939, 1071.657 115.882, 1070.780 95.700 C 1070.093 79.900, 1065.126 68.165, 1054.909 58.200 C 1049.854 53.271, 1036.844 46.476, 1029.500 44.930 C 1026.750 44.351, 1013.133 43.653, 999.241 43.380 C 978.978 42.982, 973.898 43.142, 973.557 44.192 M 346.223 67 C 322.123 72.100, 309.291 104.051, 322.375 126.377 C 329.030 137.733, 341.759 143.216, 356.102 140.906 C 368.004 138.989, 377.509 131.788, 383.094 120.454 C 392.774 100.811, 386.679 77.861, 369.556 69.484 C 363.635 66.587, 353.348 65.492, 346.223 67 M 209.587 72.750 C 208.258 82.607, 206.816 91.642, 205.924 95.693 C 204.002 104.415, 203.434 104, 217.318 104 C 231.999 104, 238.166 102.490, 242.727 97.777 C 249.020 91.275, 250.504 83.738, 246.940 76.376 C 243.627 69.532, 239.301 68, 223.298 68 L 210.227 68 209.587 72.750 M 997.078 76.650 C 996.377 81.517, 994.955 90.900, 993.917 97.500 C 992.879 104.100, 991.538 112.875, 990.936 117 C 990.335 121.125, 989.429 126.660, 988.922 129.299 C 988.415 131.939, 988 135.481, 988 137.170 L 988 140.241 1000.250 139.755 C 1014.066 139.206, 1019.243 137.693, 1026.702 132.021 C 1040.679 121.393, 1046.405 100.500, 1039.528 85.223 C 1036.515 78.529, 1032.537 74.373, 1025.722 70.797 C 1022.251 68.975, 1019.440 68.512, 1009.926 68.190 L 998.352 67.800 997.078 76.650 M 767.500 99.929 C 764.208 100.723, 760 102.774, 760 103.584 C 760 104.756, 768.763 107.958, 772.027 107.978 C 775.884 108.002, 780 105.690, 780 103.500 C 780 99.974, 774.189 98.314, 767.500 99.929" stroke="none" fill="#0b64fe" fill-rule="evenodd"/>
</svg>