
<svg xmlns="http://www.w3.org/2000/svg" width="1068" height="157" viewBox="0 0 1068 157" version="1.1">
	<path d="M 212.500 17.557 C 211.400 17.811, 208.025 18.514, 205 19.118 C 193.106 21.493, 178.199 30.286, 170.141 39.680 C 153.734 58.807, 150.098 90.628, 161.822 112.487 C 166.258 120.758, 177.302 131.146, 186.175 135.394 C 207.136 145.427, 234.883 143.575, 253.695 130.886 C 271.998 118.541, 281.302 102.340, 282.698 80.386 C 283.452 68.525, 281.797 59.611, 276.948 49.415 C 272.323 39.692, 266.296 32.731, 257.589 27.058 C 247.734 20.637, 238.656 17.925, 225.500 17.472 C 219.450 17.264, 213.600 17.302, 212.500 17.557 M 661.763 17.964 C 628.580 24.032, 607 49.598, 607 82.842 C 607 100.016, 613.292 115.479, 624.622 126.153 C 637.544 138.327, 658.159 144.048, 678.138 141.006 C 710.928 136.014, 732.739 112.645, 734.718 80.386 C 735.447 68.517, 733.781 59.576, 728.948 49.415 C 722.293 35.422, 711.029 25.542, 695.808 20.346 C 687.694 17.576, 670.474 16.371, 661.763 17.964 M 972.500 17.557 C 971.400 17.811, 968.025 18.501, 965 19.089 C 961.975 19.677, 955.276 22.188, 950.112 24.669 C 933.407 32.694, 921.688 47.172, 916.972 65.609 C 914.557 75.051, 914.352 90.042, 916.522 98.540 C 924.519 129.865, 955.545 147.381, 990.274 140.177 C 1004.836 137.157, 1013.577 132.463, 1024.077 122.026 C 1036.385 109.791, 1041.413 98.406, 1042.686 79.887 C 1043.463 68.583, 1041.759 59.529, 1036.948 49.415 C 1032.323 39.692, 1026.296 32.731, 1017.589 27.058 C 1007.734 20.637, 998.656 17.925, 985.500 17.472 C 979.450 17.264, 973.600 17.302, 972.500 17.557 M 56.563 30.750 C 54.758 42.090, 54.319 44.903, 52.153 59 C 51.603 62.575, 48.825 80.350, 45.980 98.500 C 43.134 116.650, 40.566 133.412, 40.273 135.750 L 39.740 140 54.149 140 L 68.558 140 69.806 131.750 C 70.493 127.213, 71.546 120.125, 72.147 116 C 72.748 111.875, 73.397 107.938, 73.588 107.250 C 73.847 106.323, 77.758 105.996, 88.719 105.983 C 106.087 105.962, 114.476 104.459, 123.242 99.798 C 140.428 90.659, 150.442 71.073, 147.818 51.730 C 145.614 35.479, 133.661 23.160, 117.040 20.008 C 114.118 19.453, 99.736 19, 85.080 19 L 58.433 19 56.563 30.750 M 307.562 22.250 C 307.271 24.038, 306.104 31.575, 304.969 39 C 303.834 46.425, 302.043 57.900, 300.990 64.500 C 297.215 88.159, 296.013 95.779, 293.023 115 C 291.355 125.725, 289.731 135.738, 289.415 137.250 L 288.841 140 303.353 140 C 319.893 140, 318.308 141.002, 319.962 129.500 C 321.903 116, 323.842 105.064, 324.477 104.037 C 324.850 103.434, 329.267 103, 335.036 103 C 346.697 103, 345.455 101.872, 352.103 118.500 C 357.341 131.604, 361.870 136.974, 369.249 138.832 C 373.740 139.963, 394 140.510, 394 139.500 C 394 138.717, 396.996 120.759, 397.546 118.250 C 398.016 116.103, 397.751 116, 391.742 116 C 383.965 116, 381.916 114.680, 378.664 107.578 C 374.414 98.294, 374.382 98.605, 379.974 95.017 C 407.247 77.516, 407.779 36.802, 380.906 23.655 C 372.766 19.672, 366.359 19.012, 335.795 19.006 L 308.091 19 307.562 22.250 M 417.953 20.250 C 417.927 20.938, 417.108 26.337, 416.133 32.250 L 414.360 43 430.793 43 L 447.227 43 446.788 45.750 C 437.318 105.038, 436.633 110.559, 437.972 116.868 C 440.480 128.687, 447.417 135.949, 458.746 138.615 C 466.228 140.375, 479.931 140.461, 480.420 138.750 C 480.617 138.063, 481.304 133.675, 481.947 129 C 482.591 124.325, 483.325 119.487, 483.578 118.250 C 484 116.188, 483.671 116, 479.644 116 C 472.627 116, 468.986 114.908, 467.270 112.290 C 465.874 110.158, 465.827 108.842, 466.898 101.678 C 468.199 92.968, 472.110 68.329, 474.534 53.574 C 475.340 48.664, 476 44.277, 476 43.824 C 476 43.371, 483.351 43, 492.336 43 L 508.673 43 510.340 32.750 C 511.256 27.112, 512.005 21.712, 512.003 20.750 C 512 19.108, 509.094 19, 465 19 C 428.092 19, 417.990 19.268, 417.953 20.250 M 546.871 20.017 C 535.866 21.877, 526.860 27.990, 522.285 36.704 C 518.560 43.800, 518.224 45.275, 513.558 75 C 512.737 80.225, 511.151 90.237, 510.033 97.250 C 508.915 104.263, 507.094 115.737, 505.987 122.750 C 504.880 129.762, 503.746 136.512, 503.468 137.750 L 502.962 140 517.414 140 C 533.929 140, 532.287 141.086, 534.049 129 C 534.651 124.875, 535.524 119.025, 535.990 116 C 536.456 112.975, 537.127 108.475, 537.481 106 C 537.836 103.525, 538.331 100.487, 538.582 99.250 L 539.038 97 562.500 97 L 585.962 97 586.454 94.750 C 587.815 88.536, 589.993 73.660, 589.600 73.267 C 589.353 73.020, 578.880 72.747, 566.326 72.659 L 543.500 72.500 543.755 68.500 C 544.267 60.471, 546.289 51.867, 548.403 48.722 C 551.751 43.742, 555.079 43.119, 578.683 43.056 C 597.966 43.005, 599.911 42.843, 600.377 41.250 C 600.976 39.201, 604 21.465, 604 20 C 604 18.807, 553.943 18.822, 546.871 20.017 M 758.542 21.250 C 758.269 22.488, 757.349 28, 756.498 33.500 C 755.647 39, 754.512 46.313, 753.976 49.750 C 753.439 53.188, 752.550 58.925, 752 62.500 C 751.450 66.075, 750.566 71.813, 750.035 75.250 C 749.504 78.688, 748.564 84.875, 747.946 89 C 747.328 93.125, 746.413 98.660, 745.911 101.299 C 743.511 113.940, 745.836 124.590, 752.491 131.437 C 759.290 138.434, 763.023 139.295, 788.537 139.760 L 810.574 140.161 812.584 128.081 L 814.594 116 798.047 115.900 C 788.946 115.845, 780.382 115.489, 779.015 115.109 C 777.648 114.728, 775.871 113.243, 775.066 111.808 C 773.509 109.034, 773.496 109.135, 783.980 42.500 C 785.625 32.050, 786.977 22.488, 786.985 21.250 C 787 19.023, 786.856 19, 773.019 19 C 759.334 19, 759.028 19.048, 758.542 21.250 M 840.546 21.250 C 839.996 23.759, 837 41.717, 837 42.500 C 837 42.775, 841.500 43, 847 43 C 856.849 43, 857 43.036, 857 45.366 C 857 46.668, 855.387 58.030, 853.415 70.616 C 851.444 83.202, 849.066 98.450, 848.132 104.500 L 846.432 115.500 836.002 116 L 825.572 116.500 823.821 127 C 822.858 132.775, 822.054 138.063, 822.035 138.750 C 822.008 139.727, 829.654 140, 857.031 140 C 884.204 140, 892.141 139.720, 892.412 138.750 C 892.603 138.063, 893.283 133.900, 893.922 129.500 C 894.561 125.100, 895.326 120.263, 895.621 118.750 L 896.159 116 886.079 116 L 876 116 876.059 113.250 C 876.091 111.737, 878.459 95.425, 881.319 77 L 886.521 43.500 897.134 43.217 L 907.747 42.935 908.937 34.217 C 909.592 29.423, 910.375 24.038, 910.677 22.250 L 911.227 19 876.133 19 L 841.038 19 840.546 21.250 M 211.438 42.881 C 206.071 44.265, 197.896 49.306, 194.267 53.468 C 192.333 55.686, 189.345 60.425, 187.626 64 C 184.887 69.695, 184.459 71.739, 184.168 80.500 C 183.763 92.724, 185.873 99.418, 192.433 106.714 C 198.430 113.384, 204.570 116.248, 214.051 116.797 C 223.413 117.339, 230.624 115.439, 237.346 110.660 C 255.879 97.484, 259.698 68.393, 245.080 51.744 C 239.944 45.894, 232.241 42.677, 222.608 42.359 C 218.149 42.211, 213.122 42.446, 211.438 42.881 M 662.286 43.451 C 651.845 46.714, 644.469 53.484, 639.277 64.570 C 636.738 69.991, 636.502 71.487, 636.526 82 C 636.557 95.265, 638.085 99.882, 644.885 107.259 C 650.768 113.642, 656.820 116.297, 666.664 116.813 C 676.011 117.304, 681.379 115.890, 689.181 110.884 C 705.827 100.202, 711.292 72.494, 700.096 55.545 C 692.727 44.389, 676.199 39.103, 662.286 43.451 M 970 43.348 C 968.075 44.105, 965.375 45.187, 964 45.752 C 958.654 47.948, 952.083 55.053, 948.272 62.757 C 944.790 69.797, 944.475 71.156, 944.168 80.442 C 943.892 88.814, 944.194 91.456, 945.972 96.202 C 948.610 103.244, 955.181 110.719, 961.629 114.012 C 965.858 116.172, 967.819 116.500, 976.500 116.500 C 985.372 116.500, 987.121 116.193, 992 113.777 C 998.582 110.519, 1001.471 108.080, 1006.326 101.685 C 1014.335 91.137, 1016.385 72.789, 1010.878 60.954 C 1005.060 48.451, 996.356 42.808, 982.081 42.286 C 976.463 42.080, 972.291 42.447, 970 43.348 M 83.520 44.250 C 83.138 45.394, 79.999 65.716, 78.406 77.354 L 77.742 82.207 90.701 81.854 C 103.048 81.517, 103.893 81.358, 108.580 78.495 C 114.473 74.896, 119 67.091, 119 60.533 C 119 54.165, 115.340 47.923, 110.038 45.250 C 106.231 43.330, 103.988 43, 94.757 43 C 86.990 43, 83.820 43.353, 83.520 44.250 M 333.726 43.638 C 333.434 44.112, 332.885 46.750, 332.506 49.500 C 332.128 52.250, 330.959 59.527, 329.909 65.672 C 328.859 71.817, 328 77.612, 328 78.550 C 328 80.098, 329.279 80.214, 341.750 79.803 C 357.280 79.291, 362.549 77.701, 367.257 72.107 C 372.378 66.020, 373.309 55.574, 369.219 50.087 C 365.210 44.708, 361.645 43.576, 347.395 43.160 C 340.169 42.949, 334.018 43.164, 333.726 43.638" stroke="none" fill="#0b64fe" fill-rule="evenodd"/>
</svg>